<mxfile host="app.diagrams.net" agent="Mozilla/5.0 (Windows NT 10.0; Win64; x64) AppleWebKit/537.36 (KHTML, like Gecko) Chrome/135.0.0.0 Safari/537.36" version="26.2.14">
  <diagram name="Rut_the" id="Rut_the">
    <mxGraphModel dx="1236" dy="535" grid="1" gridSize="10" guides="1" tooltips="1" connect="1" arrows="1" fold="1" page="1" pageScale="1" pageWidth="827" pageHeight="1169" math="0" shadow="0">
      <root>
        <mxCell id="0" />
        <mxCell id="1" parent="0" />
        <mxCell id="2" value="" style="swimlane;horizontal=0;" parent="1" vertex="1">
          <mxGeometry x="40" y="40" width="480" height="330" as="geometry" />
        </mxCell>
        <mxCell id="3" value="Người chơi" style="swimlane;horizontal=1;" parent="2" vertex="1">
          <mxGeometry y="30" width="240" height="300" as="geometry" />
        </mxCell>
        <mxCell id="Bb6sBgZ2o-7UQdskq0is-6" value="Đến ô cơ hội" style="rounded=1;whiteSpace=wrap;html=1;" parent="3" vertex="1">
          <mxGeometry x="60" y="50" width="120" height="60" as="geometry" />
        </mxCell>
        <mxCell id="4" value="Hệ thống" style="swimlane;horizontal=1;" parent="2" vertex="1">
          <mxGeometry x="240" y="30" width="240" height="300" as="geometry" />
        </mxCell>
        <mxCell id="Bb6sBgZ2o-7UQdskq0is-12" style="edgeStyle=orthogonalEdgeStyle;rounded=0;orthogonalLoop=1;jettySize=auto;html=1;exitX=0.5;exitY=1;exitDx=0;exitDy=0;entryX=0.5;entryY=0;entryDx=0;entryDy=0;" parent="4" source="Bb6sBgZ2o-7UQdskq0is-7" target="Bb6sBgZ2o-7UQdskq0is-8" edge="1">
          <mxGeometry relative="1" as="geometry" />
        </mxCell>
        <mxCell id="Bb6sBgZ2o-7UQdskq0is-7" value="Hiển thị thẻ rút ngẫu nhiên" style="rounded=0;whiteSpace=wrap;html=1;" parent="4" vertex="1">
          <mxGeometry x="60" y="50" width="120" height="60" as="geometry" />
        </mxCell>
        <mxCell id="Bb6sBgZ2o-7UQdskq0is-13" style="edgeStyle=orthogonalEdgeStyle;rounded=0;orthogonalLoop=1;jettySize=auto;html=1;exitX=0.5;exitY=1;exitDx=0;exitDy=0;entryX=0.5;entryY=0;entryDx=0;entryDy=0;" parent="4" source="Bb6sBgZ2o-7UQdskq0is-8" target="Bb6sBgZ2o-7UQdskq0is-10" edge="1">
          <mxGeometry relative="1" as="geometry" />
        </mxCell>
        <mxCell id="Bb6sBgZ2o-7UQdskq0is-8" value="Xử lý sự kiện trên thẻ" style="rounded=0;whiteSpace=wrap;html=1;" parent="4" vertex="1">
          <mxGeometry x="60" y="130" width="120" height="60" as="geometry" />
        </mxCell>
        <mxCell id="Bb6sBgZ2o-7UQdskq0is-10" value="Cập nhật tài sản, trạng thái người chơi" style="rounded=0;whiteSpace=wrap;html=1;" parent="4" vertex="1">
          <mxGeometry x="60" y="210" width="120" height="60" as="geometry" />
        </mxCell>
        <mxCell id="Bb6sBgZ2o-7UQdskq0is-5" value="Rút thẻ" style="text;html=1;align=center;verticalAlign=middle;resizable=0;points=[];autosize=1;strokeColor=none;fillColor=none;" parent="2" vertex="1">
          <mxGeometry x="210" width="60" height="30" as="geometry" />
        </mxCell>
        <mxCell id="Bb6sBgZ2o-7UQdskq0is-11" style="edgeStyle=orthogonalEdgeStyle;rounded=0;orthogonalLoop=1;jettySize=auto;html=1;exitX=1;exitY=0.5;exitDx=0;exitDy=0;entryX=0;entryY=0.5;entryDx=0;entryDy=0;" parent="2" source="Bb6sBgZ2o-7UQdskq0is-6" target="Bb6sBgZ2o-7UQdskq0is-7" edge="1">
          <mxGeometry relative="1" as="geometry" />
        </mxCell>
      </root>
    </mxGraphModel>
  </diagram>
</mxfile>
